<?xml version="1.0" encoding="utf-8"?>
<!-- Generator: Adobe Illustrator 21.0.1, SVG Export Plug-In . SVG Version: 6.00 Build 0)  -->
<svg version="1.1" id="Capa_1" xmlns="http://www.w3.org/2000/svg" xmlns:xlink="http://www.w3.org/1999/xlink" x="0px" y="0px"
	 viewBox="0 0 612 612" enable-background="new 0 0 612 612" xml:space="preserve">
<rect fill="#FF9300" width="612" height="612"/>
<g>
	<g>
		<g id="Camera">
			<g>
				<path fill="#FFFFFF" d="M459.6,203.8h-73.8l-31.5-31.5c-3.5-3.5-8.2-5.4-13-5.4h-58.5c-4.9,0-9.6,1.9-13,5.4l-31.5,31.5h-73.8
					c-10.2,0-18.4,8.3-18.4,18.4v184.4c0,10.2,8.3,18.4,18.4,18.4h36.9c10.2,0,18.4-8.3,18.4-18.4c0-10.2-8.3-18.4-18.4-18.4h-9.2
					c-5.1,0-9.2-4.1-9.2-9.2V249.9c0-5.1,4.1-9.2,9.2-9.2h61.4l10.8-10.8l26.1-26.1h43.2l26.1,26.1l10.8,10.8h61.4
					c5.1,0,9.2,4.1,9.2,9.2V379c0,5.1-4.1,9.2-9.2,9.2h-9.2c-10.2,0-18.4,8.3-18.4,18.4c0,10.1,8.1,18.3,18.2,18.4v0h37.2
					c10.2,0,18.4-8.3,18.4-18.4V222.2C478,212,469.7,203.8,459.6,203.8z M312,259.1c-40.7,0-73.8,33-73.8,73.8s33,73.8,73.8,73.8
					s73.8-33,73.8-73.8S352.7,259.1,312,259.1z M312,369.8c-20.3,0-36.9-16.5-36.9-36.9S291.7,296,312,296s36.9,16.5,36.9,36.9
					S332.3,369.8,312,369.8z"/>
			</g>
		</g>
	</g>
</g>
</svg>
