<?xml version="1.0" encoding="utf-8"?>
<!-- Generator: Adobe Illustrator 21.0.1, SVG Export Plug-In . SVG Version: 6.00 Build 0)  -->
<svg version="1.1" id="Layer_1" xmlns="http://www.w3.org/2000/svg" xmlns:xlink="http://www.w3.org/1999/xlink" x="0px" y="0px"
	 viewBox="0 0 300 100" enable-background="new 0 0 300 100" xml:space="preserve">
<g>
	<g>
		<path fill="#3B3B3D" d="M51.5,56.6c0,0-2.2,7.2-9.9,8.3c0,0,13.4,7.1,14.8,10.4c0,0-2.6-7.7,3.3-11.4s3.9-5.6,5.5-7.3
			c1.5-1.7,2.6-4.1,7.5-3.8c4.9,0.3,2.8-5.5,0.9-5.3c0,0-0.8-0.4,0.1-1.1c0,0,1.4-2-0.4-1.7l-0.3,0l0.3-0.8c0,0,0.8-1.6-1.3-1
			L70.7,43l-0.5-0.3l0.1-2.7c0,0,0.2-0.8-0.8-0.9c-1-0.1-3.6,0-3.6,0s-1.4-0.3-1.9-0.9c-0.4-0.6-4-6-8.6-6.1c0,0-1.4-3.5-1.4-3.4
			c0,0.1,0-0.1,0-0.1l0.1,12.6L51.5,56.6z"/>
		<path fill="#F28F20" d="M50.5,56.8c0,0-1.8,5.7-9.4,0c0,0-2.4,7-7.3-0.3c0,0-4.1-0.9-2.1-4.8c0,0-5.1-3.8,1-5.9
			c0,0-0.2-2.2,2.5-1.9c0,0-3.4-5.2,1.6-6.3c0,0,0.1,0,0.1,0c0,0,0-3.3,3.3-2.2c0,0,2.3,0.4,2.8-0.2s-0.7-3.9,3.7-3.3
			c0,0,0.2-3.8,1.5-4.6l0.4,13.9l0,13.8L50.5,56.8z"/>
		<circle fill="#FFFFFF" cx="51.5" cy="48.7" r="7.8"/>
		<circle fill="#3B3B3D" cx="51.5" cy="48.7" r="5.9"/>
		<circle fill="#F7F8F9" cx="51.6" cy="48.7" r="4.4"/>
		<circle fill="#F28F20" cx="51.5" cy="48.7" r="3.5"/>
		<g>
			<ellipse fill="#FFFFFF" cx="37.8" cy="42.5" rx="1.8" ry="1.8"/>
		</g>
		<g>
			<ellipse fill="#FFFFFF" cx="42.1" cy="38.5" rx="1.3" ry="1.4"/>
		</g>
		<g>
			<ellipse fill="#FFFFFF" cx="41.6" cy="45.9" rx="0.8" ry="0.8"/>
		</g>
		<g>
			<ellipse fill="#FFFFFF" cx="38.7" cy="49.6" rx="0.9" ry="1"/>
		</g>
		<g>
			<ellipse fill="#FFFFFF" cx="46.4" cy="39.5" rx="0.9" ry="1"/>
		</g>
		<g>
			<ellipse fill="#F28F20" cx="34.3" cy="36.2" rx="0.9" ry="1"/>
		</g>
		<g>
			<ellipse fill="#F28F20" cx="25.7" cy="39.3" rx="1.3" ry="1.4"/>
		</g>
		<g>
			<ellipse fill="#F28F20" cx="30.2" cy="37.9" rx="0.8" ry="0.8"/>
		</g>
		<g>
			<ellipse fill="#F28F20" cx="31.1" cy="42.5" rx="0.9" ry="1"/>
		</g>
		<g>
			<ellipse fill="#F28F20" cx="35.8" cy="32.6" rx="0.9" ry="1"/>
		</g>
		<path fill="#414143" d="M64.7,38.5c0,0,1.2-0.4,2.1-1.5c0,0-1.4,2.1-2.1,2C64.1,38.9,64.7,38.5,64.7,38.5z"/>
	</g>
	<rect x="88.6" y="9.2" fill="#3B3B3D" width="1.3" height="81.9"/>
	<g>
		<g>
			<path fill="#3B3B3D" d="M126.3,36.7c-0.2,0.3-0.3,0.5-0.5,0.6c-0.2,0.1-0.4,0.2-0.7,0.2c-0.3,0-0.7-0.2-1.1-0.5
				c-0.4-0.3-0.9-0.6-1.5-1c-0.6-0.4-1.4-0.7-2.2-1c-0.9-0.3-1.9-0.5-3.1-0.5c-1.2,0-2.2,0.2-3.1,0.5c-0.9,0.3-1.6,0.7-2.2,1.3
				c-0.6,0.5-1,1.2-1.3,1.9s-0.5,1.5-0.5,2.3c0,1.1,0.3,2,0.8,2.7c0.5,0.7,1.2,1.3,2.1,1.8c0.9,0.5,1.8,0.9,2.9,1.3
				c1.1,0.4,2.2,0.7,3.4,1.1c1.1,0.4,2.3,0.8,3.4,1.3c1.1,0.5,2.1,1.1,2.9,1.9c0.9,0.7,1.6,1.7,2.1,2.7c0.5,1.1,0.8,2.4,0.8,4
				c0,1.7-0.3,3.2-0.9,4.7c-0.6,1.5-1.4,2.7-2.5,3.8c-1.1,1.1-2.4,1.9-4,2.6c-1.6,0.6-3.4,0.9-5.4,0.9c-2.5,0-4.7-0.4-6.8-1.3
				c-2-0.9-3.8-2.1-5.2-3.6l1.5-2.5c0.1-0.2,0.3-0.4,0.5-0.5c0.2-0.1,0.4-0.2,0.7-0.2c0.2,0,0.5,0.1,0.8,0.3c0.3,0.2,0.6,0.4,1,0.7
				c0.4,0.3,0.8,0.6,1.3,0.9c0.5,0.3,1,0.6,1.6,0.9c0.6,0.3,1.3,0.5,2.1,0.7c0.8,0.2,1.7,0.3,2.6,0.3c1.2,0,2.3-0.2,3.3-0.5
				c1-0.3,1.8-0.8,2.4-1.4c0.7-0.6,1.2-1.3,1.5-2.2c0.4-0.9,0.5-1.8,0.5-2.9c0-1.2-0.3-2.1-0.8-2.8c-0.5-0.7-1.2-1.4-2.1-1.9
				c-0.9-0.5-1.8-0.9-2.9-1.3s-2.2-0.7-3.4-1.1c-1.1-0.4-2.3-0.8-3.4-1.3c-1.1-0.5-2.1-1.1-2.9-1.9c-0.9-0.8-1.5-1.7-2.1-2.9
				c-0.5-1.1-0.8-2.6-0.8-4.3c0-1.4,0.3-2.7,0.8-3.9c0.5-1.3,1.3-2.4,2.3-3.4c1-1,2.2-1.8,3.7-2.3c1.5-0.6,3.2-0.9,5.1-0.9
				c2.1,0,4.1,0.3,5.8,1c1.8,0.7,3.3,1.7,4.6,2.9L126.3,36.7z"/>
			<path fill="#3B3B3D" d="M134.1,69V29.7h4.8v15.9c1.2-1.2,2.4-2.2,3.8-2.9c1.4-0.7,3-1.1,4.9-1.1c1.5,0,2.8,0.2,3.9,0.7
				c1.1,0.5,2.1,1.2,2.8,2.1s1.3,2,1.7,3.2c0.4,1.3,0.6,2.7,0.6,4.2V69h-4.8V51.8c0-2-0.5-3.6-1.4-4.8c-0.9-1.1-2.4-1.7-4.3-1.7
				c-1.4,0-2.7,0.3-4,1c-1.2,0.7-2.3,1.6-3.3,2.7V69H134.1z"/>
			<path fill="#3B3B3D" d="M181.1,69c-0.5,0-0.8-0.1-1.1-0.2s-0.4-0.4-0.6-0.9l-0.5-2.5c-0.7,0.6-1.4,1.2-2.1,1.7s-1.4,0.9-2.1,1.3
				c-0.7,0.3-1.5,0.6-2.4,0.8s-1.8,0.3-2.8,0.3c-1,0-2-0.1-3-0.4c-0.9-0.3-1.7-0.7-2.4-1.3c-0.7-0.6-1.2-1.3-1.6-2.2
				c-0.4-0.9-0.6-2-0.6-3.2c0-1.1,0.3-2.1,0.9-3.1c0.6-1,1.5-1.9,2.9-2.6c1.3-0.8,3-1.4,5.1-1.9s4.7-0.8,7.8-0.8v-2.1
				c0-2.1-0.5-3.7-1.4-4.8c-0.9-1.1-2.2-1.6-4-1.6c-1.2,0-2.2,0.1-2.9,0.4c-0.8,0.3-1.5,0.6-2.1,1c-0.6,0.4-1.1,0.7-1.5,1
				s-0.8,0.4-1.2,0.4c-0.3,0-0.6-0.1-0.8-0.3c-0.2-0.2-0.4-0.4-0.6-0.6l-0.9-1.5c1.5-1.4,3.1-2.5,4.8-3.2s3.6-1.1,5.7-1.1
				c1.5,0,2.9,0.2,4,0.7c1.2,0.5,2.2,1.2,3,2.1c0.8,0.9,1.4,2,1.8,3.2c0.4,1.3,0.6,2.6,0.6,4.2V69H181.1z M170.9,66.1
				c0.8,0,1.6-0.1,2.3-0.3s1.3-0.4,2-0.7c0.6-0.3,1.2-0.7,1.8-1.1c0.6-0.5,1.1-1,1.6-1.5v-5.6c-2.2,0.1-4,0.2-5.6,0.5
				c-1.5,0.3-2.8,0.6-3.8,1.1s-1.7,1-2.1,1.6c-0.4,0.6-0.7,1.3-0.7,2c0,0.7,0.1,1.3,0.3,1.8c0.2,0.5,0.5,0.9,0.9,1.3
				c0.4,0.3,0.9,0.6,1.4,0.7C169.7,66,170.3,66.1,170.9,66.1z"/>
			<path fill="#3B3B3D" d="M190.4,69V42h2.9c0.7,0,1.1,0.3,1.3,1l0.3,2.8c1-1.2,2.1-2.2,3.4-3c1.2-0.8,2.7-1.2,4.3-1.2
				c1.8,0,3.3,0.5,4.4,1.5c1.1,1,1.9,2.4,2.4,4.1c0.4-1,0.9-1.8,1.5-2.5c0.6-0.7,1.3-1.3,2.1-1.8c0.8-0.5,1.6-0.8,2.4-1
				s1.7-0.3,2.6-0.3c1.4,0,2.7,0.2,3.8,0.7c1.1,0.5,2.1,1.1,2.8,2c0.8,0.9,1.4,1.9,1.8,3.2c0.4,1.3,0.6,2.7,0.6,4.4V69h-4.8V51.8
				c0-2.1-0.5-3.7-1.4-4.8c-0.9-1.1-2.3-1.6-4-1.6c-0.8,0-1.5,0.1-2.2,0.4c-0.7,0.3-1.3,0.7-1.9,1.2c-0.5,0.5-1,1.2-1.3,2
				c-0.3,0.8-0.5,1.7-0.5,2.8V69h-4.8V51.8c0-2.2-0.4-3.8-1.3-4.9s-2.1-1.6-3.8-1.6c-1.2,0-2.3,0.3-3.3,0.9c-1,0.6-1.9,1.5-2.7,2.6
				V69H190.4z"/>
			<path fill="#3B3B3D" d="M251.5,69c-0.5,0-0.8-0.1-1.1-0.2s-0.4-0.4-0.6-0.9l-0.5-2.5c-0.7,0.6-1.4,1.2-2.1,1.7s-1.4,0.9-2.1,1.3
				c-0.7,0.3-1.5,0.6-2.4,0.8s-1.8,0.3-2.8,0.3c-1,0-2-0.1-3-0.4c-0.9-0.3-1.7-0.7-2.4-1.3c-0.7-0.6-1.2-1.3-1.6-2.2
				c-0.4-0.9-0.6-2-0.6-3.2c0-1.1,0.3-2.1,0.9-3.1c0.6-1,1.5-1.9,2.9-2.6c1.3-0.8,3-1.4,5.1-1.9s4.7-0.8,7.8-0.8v-2.1
				c0-2.1-0.5-3.7-1.4-4.8c-0.9-1.1-2.2-1.6-4-1.6c-1.2,0-2.2,0.1-2.9,0.4c-0.8,0.3-1.5,0.6-2.1,1c-0.6,0.4-1.1,0.7-1.5,1
				s-0.8,0.4-1.2,0.4c-0.3,0-0.6-0.1-0.8-0.3c-0.2-0.2-0.4-0.4-0.6-0.6l-0.9-1.5c1.5-1.4,3.1-2.5,4.8-3.2s3.6-1.1,5.7-1.1
				c1.5,0,2.9,0.2,4,0.7c1.2,0.5,2.2,1.2,3,2.1c0.8,0.9,1.4,2,1.8,3.2c0.4,1.3,0.6,2.6,0.6,4.2V69H251.5z M241.3,66.1
				c0.8,0,1.6-0.1,2.3-0.3s1.3-0.4,2-0.7c0.6-0.3,1.2-0.7,1.8-1.1c0.6-0.5,1.1-1,1.6-1.5v-5.6c-2.2,0.1-4,0.2-5.6,0.5
				c-1.5,0.3-2.8,0.6-3.8,1.1s-1.7,1-2.1,1.6c-0.4,0.6-0.7,1.3-0.7,2c0,0.7,0.1,1.3,0.3,1.8c0.2,0.5,0.5,0.9,0.9,1.3
				c0.4,0.3,0.9,0.6,1.4,0.7C240.1,66,240.7,66.1,241.3,66.1z"/>
			<path fill="#3B3B3D" d="M260.8,69V42h2.7c0.5,0,0.9,0.1,1.1,0.3s0.3,0.5,0.4,1l0.3,4.1c0.9-1.8,1.9-3.3,3.2-4.3
				c1.3-1,2.8-1.6,4.6-1.6c0.6,0,1.1,0.1,1.6,0.2c0.5,0.1,1,0.3,1.4,0.6l-0.3,3.5c-0.1,0.4-0.4,0.7-0.8,0.7c-0.2,0-0.6-0.1-1.1-0.2
				c-0.5-0.1-1-0.2-1.6-0.2c-0.9,0-1.6,0.1-2.3,0.4s-1.3,0.6-1.8,1.1c-0.5,0.5-1,1.1-1.4,1.8c-0.4,0.7-0.8,1.5-1.1,2.5V69H260.8z"/>
		</g>
	</g>
</g>
</svg>
